ISO-10303-21;
HEADER;
/* Generated by software containing ST-Developer
 * from STEP Tools, Inc. (www.steptools.com) 
 */

FILE_DESCRIPTION(
/* description */ (''),
/* implementation_level */ '2;1');

FILE_NAME(
/* name */ 'EECE1210Box.step',
/* time_stamp */ '2025-04-08T20:08:57-05:00',
/* author */ (''),
/* organization */ (''),
/* preprocessor_version */ 'ST-DEVELOPER v20.1',
/* originating_system */ 'Autodesk Translation Framework v14.4.0.0',
/* authorisation */ '');

FILE_SCHEMA (('AUTOMOTIVE_DESIGN { 1 0 10303 214 3 1 1 }'));
ENDSEC;

DATA;
#10=MECHANICAL_DESIGN_GEOMETRIC_PRESENTATION_REPRESENTATION('',(#13),#504);
#11=SHAPE_REPRESENTATION_RELATIONSHIP('SRR','None',#511,#12);
#12=ADVANCED_BREP_SHAPE_REPRESENTATION('',(#14),#503);
#13=STYLED_ITEM('',(#520),#14);
#14=MANIFOLD_SOLID_BREP('Body2',#296);
#15=FACE_BOUND('',#50,.T.);
#16=FACE_BOUND('',#53,.T.);
#17=FACE_BOUND('',#55,.T.);
#18=PLANE('',#313);
#19=PLANE('',#314);
#20=PLANE('',#315);
#21=PLANE('',#316);
#22=PLANE('',#317);
#23=PLANE('',#318);
#24=PLANE('',#323);
#25=PLANE('',#326);
#26=PLANE('',#329);
#27=PLANE('',#332);
#28=PLANE('',#335);
#29=FACE_OUTER_BOUND('',#45,.T.);
#30=FACE_OUTER_BOUND('',#46,.T.);
#31=FACE_OUTER_BOUND('',#47,.T.);
#32=FACE_OUTER_BOUND('',#48,.T.);
#33=FACE_OUTER_BOUND('',#49,.T.);
#34=FACE_OUTER_BOUND('',#51,.T.);
#35=FACE_OUTER_BOUND('',#52,.T.);
#36=FACE_OUTER_BOUND('',#54,.T.);
#37=FACE_OUTER_BOUND('',#56,.T.);
#38=FACE_OUTER_BOUND('',#57,.T.);
#39=FACE_OUTER_BOUND('',#58,.T.);
#40=FACE_OUTER_BOUND('',#59,.T.);
#41=FACE_OUTER_BOUND('',#60,.T.);
#42=FACE_OUTER_BOUND('',#61,.T.);
#43=FACE_OUTER_BOUND('',#62,.T.);
#44=FACE_OUTER_BOUND('',#63,.T.);
#45=EDGE_LOOP('',(#197,#198,#199,#200));
#46=EDGE_LOOP('',(#201,#202,#203,#204));
#47=EDGE_LOOP('',(#205,#206,#207,#208));
#48=EDGE_LOOP('',(#209,#210,#211,#212));
#49=EDGE_LOOP('',(#213,#214,#215,#216));
#50=EDGE_LOOP('',(#217));
#51=EDGE_LOOP('',(#218,#219,#220,#221));
#52=EDGE_LOOP('',(#222,#223,#224,#225,#226,#227,#228,#229));
#53=EDGE_LOOP('',(#230,#231,#232,#233));
#54=EDGE_LOOP('',(#234,#235,#236,#237));
#55=EDGE_LOOP('',(#238));
#56=EDGE_LOOP('',(#239,#240,#241,#242));
#57=EDGE_LOOP('',(#243,#244,#245,#246));
#58=EDGE_LOOP('',(#247,#248,#249,#250));
#59=EDGE_LOOP('',(#251,#252,#253,#254));
#60=EDGE_LOOP('',(#255,#256,#257,#258));
#61=EDGE_LOOP('',(#259,#260,#261,#262));
#62=EDGE_LOOP('',(#263,#264,#265,#266));
#63=EDGE_LOOP('',(#267,#268,#269,#270,#271,#272,#273,#274));
#64=LINE('',#424,#93);
#65=LINE('',#429,#94);
#66=LINE('',#431,#95);
#67=LINE('',#433,#96);
#68=LINE('',#434,#97);
#69=LINE('',#438,#98);
#70=LINE('',#439,#99);
#71=LINE('',#440,#100);
#72=LINE('',#443,#101);
#73=LINE('',#444,#102);
#74=LINE('',#447,#103);
#75=LINE('',#448,#104);
#76=LINE('',#450,#105);
#77=LINE('',#456,#106);
#78=LINE('',#460,#107);
#79=LINE('',#464,#108);
#80=LINE('',#467,#109);
#81=LINE('',#471,#110);
#82=LINE('',#472,#111);
#83=LINE('',#473,#112);
#84=LINE('',#477,#113);
#85=LINE('',#480,#114);
#86=LINE('',#481,#115);
#87=LINE('',#485,#116);
#88=LINE('',#488,#117);
#89=LINE('',#489,#118);
#90=LINE('',#493,#119);
#91=LINE('',#496,#120);
#92=LINE('',#497,#121);
#93=VECTOR('',#342,5.5);
#94=VECTOR('',#347,10.);
#95=VECTOR('',#348,10.);
#96=VECTOR('',#349,10.);
#97=VECTOR('',#350,10.);
#98=VECTOR('',#353,10.);
#99=VECTOR('',#354,10.);
#100=VECTOR('',#355,10.);
#101=VECTOR('',#358,10.);
#102=VECTOR('',#359,10.);
#103=VECTOR('',#362,10.);
#104=VECTOR('',#363,10.);
#105=VECTOR('',#366,10.);
#106=VECTOR('',#371,10.);
#107=VECTOR('',#374,10.);
#108=VECTOR('',#377,10.);
#109=VECTOR('',#380,10.);
#110=VECTOR('',#383,10.);
#111=VECTOR('',#384,10.);
#112=VECTOR('',#385,10.);
#113=VECTOR('',#390,10.);
#114=VECTOR('',#393,10.);
#115=VECTOR('',#394,10.);
#116=VECTOR('',#399,10.);
#117=VECTOR('',#402,10.);
#118=VECTOR('',#403,10.);
#119=VECTOR('',#408,10.);
#120=VECTOR('',#411,10.);
#121=VECTOR('',#412,10.);
#122=CIRCLE('',#311,5.5);
#123=CIRCLE('',#312,5.5);
#124=CIRCLE('',#319,2.);
#125=CIRCLE('',#320,1.99999999999998);
#126=CIRCLE('',#321,1.99999999999999);
#127=CIRCLE('',#322,2.00000000000001);
#128=CIRCLE('',#325,2.00000000000001);
#129=CIRCLE('',#328,1.99999999999999);
#130=CIRCLE('',#331,1.99999999999998);
#131=CIRCLE('',#334,2.);
#132=VERTEX_POINT('',#421);
#133=VERTEX_POINT('',#423);
#134=VERTEX_POINT('',#427);
#135=VERTEX_POINT('',#428);
#136=VERTEX_POINT('',#430);
#137=VERTEX_POINT('',#432);
#138=VERTEX_POINT('',#436);
#139=VERTEX_POINT('',#437);
#140=VERTEX_POINT('',#442);
#141=VERTEX_POINT('',#446);
#142=VERTEX_POINT('',#452);
#143=VERTEX_POINT('',#453);
#144=VERTEX_POINT('',#455);
#145=VERTEX_POINT('',#457);
#146=VERTEX_POINT('',#459);
#147=VERTEX_POINT('',#461);
#148=VERTEX_POINT('',#463);
#149=VERTEX_POINT('',#465);
#150=VERTEX_POINT('',#469);
#151=VERTEX_POINT('',#470);
#152=VERTEX_POINT('',#475);
#153=VERTEX_POINT('',#479);
#154=VERTEX_POINT('',#483);
#155=VERTEX_POINT('',#487);
#156=VERTEX_POINT('',#491);
#157=VERTEX_POINT('',#495);
#158=EDGE_CURVE('',#132,#132,#122,.T.);
#159=EDGE_CURVE('',#132,#133,#64,.T.);
#160=EDGE_CURVE('',#133,#133,#123,.T.);
#161=EDGE_CURVE('',#134,#135,#65,.T.);
#162=EDGE_CURVE('',#136,#134,#66,.T.);
#163=EDGE_CURVE('',#137,#136,#67,.T.);
#164=EDGE_CURVE('',#135,#137,#68,.T.);
#165=EDGE_CURVE('',#138,#139,#69,.T.);
#166=EDGE_CURVE('',#138,#136,#70,.T.);
#167=EDGE_CURVE('',#139,#134,#71,.T.);
#168=EDGE_CURVE('',#140,#138,#72,.T.);
#169=EDGE_CURVE('',#140,#137,#73,.T.);
#170=EDGE_CURVE('',#141,#140,#74,.T.);
#171=EDGE_CURVE('',#141,#135,#75,.T.);
#172=EDGE_CURVE('',#139,#141,#76,.T.);
#173=EDGE_CURVE('',#142,#143,#124,.T.);
#174=EDGE_CURVE('',#143,#144,#77,.T.);
#175=EDGE_CURVE('',#144,#145,#125,.T.);
#176=EDGE_CURVE('',#145,#146,#78,.T.);
#177=EDGE_CURVE('',#146,#147,#126,.T.);
#178=EDGE_CURVE('',#147,#148,#79,.T.);
#179=EDGE_CURVE('',#148,#149,#127,.T.);
#180=EDGE_CURVE('',#149,#142,#80,.T.);
#181=EDGE_CURVE('',#150,#151,#81,.T.);
#182=EDGE_CURVE('',#151,#142,#82,.T.);
#183=EDGE_CURVE('',#150,#149,#83,.T.);
#184=EDGE_CURVE('',#152,#150,#128,.T.);
#185=EDGE_CURVE('',#152,#148,#84,.T.);
#186=EDGE_CURVE('',#153,#152,#85,.T.);
#187=EDGE_CURVE('',#153,#147,#86,.T.);
#188=EDGE_CURVE('',#154,#153,#129,.T.);
#189=EDGE_CURVE('',#154,#146,#87,.T.);
#190=EDGE_CURVE('',#155,#154,#88,.T.);
#191=EDGE_CURVE('',#155,#145,#89,.T.);
#192=EDGE_CURVE('',#156,#155,#130,.T.);
#193=EDGE_CURVE('',#156,#144,#90,.T.);
#194=EDGE_CURVE('',#157,#156,#91,.T.);
#195=EDGE_CURVE('',#157,#143,#92,.T.);
#196=EDGE_CURVE('',#151,#157,#131,.T.);
#197=ORIENTED_EDGE('',*,*,#158,.F.);
#198=ORIENTED_EDGE('',*,*,#159,.T.);
#199=ORIENTED_EDGE('',*,*,#160,.F.);
#200=ORIENTED_EDGE('',*,*,#159,.F.);
#201=ORIENTED_EDGE('',*,*,#161,.F.);
#202=ORIENTED_EDGE('',*,*,#162,.F.);
#203=ORIENTED_EDGE('',*,*,#163,.F.);
#204=ORIENTED_EDGE('',*,*,#164,.F.);
#205=ORIENTED_EDGE('',*,*,#165,.F.);
#206=ORIENTED_EDGE('',*,*,#166,.T.);
#207=ORIENTED_EDGE('',*,*,#162,.T.);
#208=ORIENTED_EDGE('',*,*,#167,.F.);
#209=ORIENTED_EDGE('',*,*,#168,.F.);
#210=ORIENTED_EDGE('',*,*,#169,.T.);
#211=ORIENTED_EDGE('',*,*,#163,.T.);
#212=ORIENTED_EDGE('',*,*,#166,.F.);
#213=ORIENTED_EDGE('',*,*,#170,.F.);
#214=ORIENTED_EDGE('',*,*,#171,.T.);
#215=ORIENTED_EDGE('',*,*,#164,.T.);
#216=ORIENTED_EDGE('',*,*,#169,.F.);
#217=ORIENTED_EDGE('',*,*,#160,.T.);
#218=ORIENTED_EDGE('',*,*,#172,.F.);
#219=ORIENTED_EDGE('',*,*,#167,.T.);
#220=ORIENTED_EDGE('',*,*,#161,.T.);
#221=ORIENTED_EDGE('',*,*,#171,.F.);
#222=ORIENTED_EDGE('',*,*,#173,.T.);
#223=ORIENTED_EDGE('',*,*,#174,.T.);
#224=ORIENTED_EDGE('',*,*,#175,.T.);
#225=ORIENTED_EDGE('',*,*,#176,.T.);
#226=ORIENTED_EDGE('',*,*,#177,.T.);
#227=ORIENTED_EDGE('',*,*,#178,.T.);
#228=ORIENTED_EDGE('',*,*,#179,.T.);
#229=ORIENTED_EDGE('',*,*,#180,.T.);
#230=ORIENTED_EDGE('',*,*,#165,.T.);
#231=ORIENTED_EDGE('',*,*,#172,.T.);
#232=ORIENTED_EDGE('',*,*,#170,.T.);
#233=ORIENTED_EDGE('',*,*,#168,.T.);
#234=ORIENTED_EDGE('',*,*,#181,.T.);
#235=ORIENTED_EDGE('',*,*,#182,.T.);
#236=ORIENTED_EDGE('',*,*,#180,.F.);
#237=ORIENTED_EDGE('',*,*,#183,.F.);
#238=ORIENTED_EDGE('',*,*,#158,.T.);
#239=ORIENTED_EDGE('',*,*,#184,.T.);
#240=ORIENTED_EDGE('',*,*,#183,.T.);
#241=ORIENTED_EDGE('',*,*,#179,.F.);
#242=ORIENTED_EDGE('',*,*,#185,.F.);
#243=ORIENTED_EDGE('',*,*,#186,.T.);
#244=ORIENTED_EDGE('',*,*,#185,.T.);
#245=ORIENTED_EDGE('',*,*,#178,.F.);
#246=ORIENTED_EDGE('',*,*,#187,.F.);
#247=ORIENTED_EDGE('',*,*,#188,.T.);
#248=ORIENTED_EDGE('',*,*,#187,.T.);
#249=ORIENTED_EDGE('',*,*,#177,.F.);
#250=ORIENTED_EDGE('',*,*,#189,.F.);
#251=ORIENTED_EDGE('',*,*,#190,.T.);
#252=ORIENTED_EDGE('',*,*,#189,.T.);
#253=ORIENTED_EDGE('',*,*,#176,.F.);
#254=ORIENTED_EDGE('',*,*,#191,.F.);
#255=ORIENTED_EDGE('',*,*,#192,.T.);
#256=ORIENTED_EDGE('',*,*,#191,.T.);
#257=ORIENTED_EDGE('',*,*,#175,.F.);
#258=ORIENTED_EDGE('',*,*,#193,.F.);
#259=ORIENTED_EDGE('',*,*,#194,.T.);
#260=ORIENTED_EDGE('',*,*,#193,.T.);
#261=ORIENTED_EDGE('',*,*,#174,.F.);
#262=ORIENTED_EDGE('',*,*,#195,.F.);
#263=ORIENTED_EDGE('',*,*,#196,.T.);
#264=ORIENTED_EDGE('',*,*,#195,.T.);
#265=ORIENTED_EDGE('',*,*,#173,.F.);
#266=ORIENTED_EDGE('',*,*,#182,.F.);
#267=ORIENTED_EDGE('',*,*,#196,.F.);
#268=ORIENTED_EDGE('',*,*,#181,.F.);
#269=ORIENTED_EDGE('',*,*,#184,.F.);
#270=ORIENTED_EDGE('',*,*,#186,.F.);
#271=ORIENTED_EDGE('',*,*,#188,.F.);
#272=ORIENTED_EDGE('',*,*,#190,.F.);
#273=ORIENTED_EDGE('',*,*,#192,.F.);
#274=ORIENTED_EDGE('',*,*,#194,.F.);
#275=CYLINDRICAL_SURFACE('',#310,5.5);
#276=CYLINDRICAL_SURFACE('',#324,2.00000000000001);
#277=CYLINDRICAL_SURFACE('',#327,1.99999999999999);
#278=CYLINDRICAL_SURFACE('',#330,1.99999999999998);
#279=CYLINDRICAL_SURFACE('',#333,2.);
#280=ADVANCED_FACE('',(#29),#275,.F.);
#281=ADVANCED_FACE('',(#30),#18,.F.);
#282=ADVANCED_FACE('',(#31),#19,.F.);
#283=ADVANCED_FACE('',(#32),#20,.F.);
#284=ADVANCED_FACE('',(#33,#15),#21,.F.);
#285=ADVANCED_FACE('',(#34),#22,.F.);
#286=ADVANCED_FACE('',(#35,#16),#23,.T.);
#287=ADVANCED_FACE('',(#36,#17),#24,.T.);
#288=ADVANCED_FACE('',(#37),#276,.T.);
#289=ADVANCED_FACE('',(#38),#25,.T.);
#290=ADVANCED_FACE('',(#39),#277,.T.);
#291=ADVANCED_FACE('',(#40),#26,.T.);
#292=ADVANCED_FACE('',(#41),#278,.T.);
#293=ADVANCED_FACE('',(#42),#27,.T.);
#294=ADVANCED_FACE('',(#43),#279,.T.);
#295=ADVANCED_FACE('',(#44),#28,.F.);
#296=CLOSED_SHELL('',(#280,#281,#282,#283,#284,#285,#286,#287,#288,#289,
#290,#291,#292,#293,#294,#295));
#297=DERIVED_UNIT_ELEMENT(#299,1.);
#298=DERIVED_UNIT_ELEMENT(#506,-3.);
#299=(
MASS_UNIT()
NAMED_UNIT(*)
SI_UNIT(.KILO.,.GRAM.)
);
#300=DERIVED_UNIT((#297,#298));
#301=MEASURE_REPRESENTATION_ITEM('density measure',
POSITIVE_RATIO_MEASURE(7850.),#300);
#302=PROPERTY_DEFINITION_REPRESENTATION(#307,#304);
#303=PROPERTY_DEFINITION_REPRESENTATION(#308,#305);
#304=REPRESENTATION('material name',(#306),#503);
#305=REPRESENTATION('density',(#301),#503);
#306=DESCRIPTIVE_REPRESENTATION_ITEM('Steel','Steel');
#307=PROPERTY_DEFINITION('material property','material name',#513);
#308=PROPERTY_DEFINITION('material property','density of part',#513);
#309=AXIS2_PLACEMENT_3D('',#419,#336,#337);
#310=AXIS2_PLACEMENT_3D('',#420,#338,#339);
#311=AXIS2_PLACEMENT_3D('',#422,#340,#341);
#312=AXIS2_PLACEMENT_3D('',#425,#343,#344);
#313=AXIS2_PLACEMENT_3D('',#426,#345,#346);
#314=AXIS2_PLACEMENT_3D('',#435,#351,#352);
#315=AXIS2_PLACEMENT_3D('',#441,#356,#357);
#316=AXIS2_PLACEMENT_3D('',#445,#360,#361);
#317=AXIS2_PLACEMENT_3D('',#449,#364,#365);
#318=AXIS2_PLACEMENT_3D('',#451,#367,#368);
#319=AXIS2_PLACEMENT_3D('',#454,#369,#370);
#320=AXIS2_PLACEMENT_3D('',#458,#372,#373);
#321=AXIS2_PLACEMENT_3D('',#462,#375,#376);
#322=AXIS2_PLACEMENT_3D('',#466,#378,#379);
#323=AXIS2_PLACEMENT_3D('',#468,#381,#382);
#324=AXIS2_PLACEMENT_3D('',#474,#386,#387);
#325=AXIS2_PLACEMENT_3D('',#476,#388,#389);
#326=AXIS2_PLACEMENT_3D('',#478,#391,#392);
#327=AXIS2_PLACEMENT_3D('',#482,#395,#396);
#328=AXIS2_PLACEMENT_3D('',#484,#397,#398);
#329=AXIS2_PLACEMENT_3D('',#486,#400,#401);
#330=AXIS2_PLACEMENT_3D('',#490,#404,#405);
#331=AXIS2_PLACEMENT_3D('',#492,#406,#407);
#332=AXIS2_PLACEMENT_3D('',#494,#409,#410);
#333=AXIS2_PLACEMENT_3D('',#498,#413,#414);
#334=AXIS2_PLACEMENT_3D('',#499,#415,#416);
#335=AXIS2_PLACEMENT_3D('',#500,#417,#418);
#336=DIRECTION('axis',(0.,0.,1.));
#337=DIRECTION('refdir',(1.,0.,0.));
#338=DIRECTION('center_axis',(1.,0.,0.));
#339=DIRECTION('ref_axis',(0.,-1.,0.));
#340=DIRECTION('center_axis',(1.,0.,0.));
#341=DIRECTION('ref_axis',(0.,-1.,0.));
#342=DIRECTION('',(1.,0.,0.));
#343=DIRECTION('center_axis',(-1.,0.,0.));
#344=DIRECTION('ref_axis',(0.,-1.,0.));
#345=DIRECTION('center_axis',(0.,0.,-1.));
#346=DIRECTION('ref_axis',(-1.,0.,0.));
#347=DIRECTION('',(-1.,0.,0.));
#348=DIRECTION('',(0.,-1.,0.));
#349=DIRECTION('',(1.,-1.17251276528069E-16,0.));
#350=DIRECTION('',(0.,1.,0.));
#351=DIRECTION('center_axis',(1.,0.,0.));
#352=DIRECTION('ref_axis',(0.,-1.,0.));
#353=DIRECTION('',(0.,-1.,0.));
#354=DIRECTION('',(0.,0.,-1.));
#355=DIRECTION('',(0.,0.,-1.));
#356=DIRECTION('center_axis',(1.17251276528069E-16,1.,0.));
#357=DIRECTION('ref_axis',(1.,-1.17251276528069E-16,0.));
#358=DIRECTION('',(1.,-1.17251276528069E-16,0.));
#359=DIRECTION('',(0.,0.,-1.));
#360=DIRECTION('center_axis',(-1.,0.,0.));
#361=DIRECTION('ref_axis',(0.,1.,0.));
#362=DIRECTION('',(0.,1.,0.));
#363=DIRECTION('',(0.,0.,-1.));
#364=DIRECTION('center_axis',(0.,-1.,0.));
#365=DIRECTION('ref_axis',(-1.,0.,0.));
#366=DIRECTION('',(-1.,0.,0.));
#367=DIRECTION('center_axis',(0.,0.,1.));
#368=DIRECTION('ref_axis',(1.,0.,0.));
#369=DIRECTION('center_axis',(0.,0.,1.));
#370=DIRECTION('ref_axis',(-1.,5.55111512312578E-15,0.));
#371=DIRECTION('',(1.,7.37689717358908E-17,0.));
#372=DIRECTION('center_axis',(0.,0.,1.));
#373=DIRECTION('ref_axis',(0.,-1.,0.));
#374=DIRECTION('',(0.,1.,0.));
#375=DIRECTION('center_axis',(0.,0.,1.));
#376=DIRECTION('ref_axis',(1.,0.,0.));
#377=DIRECTION('',(-1.,-5.90151773887126E-17,0.));
#378=DIRECTION('center_axis',(0.,0.,1.));
#379=DIRECTION('ref_axis',(0.,1.,0.));
#380=DIRECTION('',(0.,-1.,0.));
#381=DIRECTION('center_axis',(-1.,0.,0.));
#382=DIRECTION('ref_axis',(0.,-1.,0.));
#383=DIRECTION('',(0.,-1.,0.));
#384=DIRECTION('',(0.,0.,1.));
#385=DIRECTION('',(0.,0.,1.));
#386=DIRECTION('center_axis',(0.,0.,1.));
#387=DIRECTION('ref_axis',(0.,1.,0.));
#388=DIRECTION('center_axis',(0.,0.,1.));
#389=DIRECTION('ref_axis',(0.,1.,0.));
#390=DIRECTION('',(0.,0.,1.));
#391=DIRECTION('center_axis',(-5.90151773887126E-17,1.,0.));
#392=DIRECTION('ref_axis',(-1.,-5.90151773887126E-17,0.));
#393=DIRECTION('',(-1.,-5.90151773887126E-17,0.));
#394=DIRECTION('',(0.,0.,1.));
#395=DIRECTION('center_axis',(0.,0.,1.));
#396=DIRECTION('ref_axis',(1.,0.,0.));
#397=DIRECTION('center_axis',(0.,0.,1.));
#398=DIRECTION('ref_axis',(1.,0.,0.));
#399=DIRECTION('',(0.,0.,1.));
#400=DIRECTION('center_axis',(1.,0.,0.));
#401=DIRECTION('ref_axis',(0.,1.,0.));
#402=DIRECTION('',(0.,1.,0.));
#403=DIRECTION('',(0.,0.,1.));
#404=DIRECTION('center_axis',(0.,0.,1.));
#405=DIRECTION('ref_axis',(0.,-1.,0.));
#406=DIRECTION('center_axis',(0.,0.,1.));
#407=DIRECTION('ref_axis',(0.,-1.,0.));
#408=DIRECTION('',(0.,0.,1.));
#409=DIRECTION('center_axis',(7.37689717358908E-17,-1.,0.));
#410=DIRECTION('ref_axis',(1.,7.37689717358908E-17,0.));
#411=DIRECTION('',(1.,7.37689717358908E-17,0.));
#412=DIRECTION('',(0.,0.,1.));
#413=DIRECTION('center_axis',(0.,0.,1.));
#414=DIRECTION('ref_axis',(-1.,5.55111512312578E-15,0.));
#415=DIRECTION('center_axis',(0.,0.,1.));
#416=DIRECTION('ref_axis',(-1.,5.55111512312578E-15,0.));
#417=DIRECTION('center_axis',(0.,0.,1.));
#418=DIRECTION('ref_axis',(1.,0.,0.));
#419=CARTESIAN_POINT('',(0.,0.,0.));
#420=CARTESIAN_POINT('Origin',(5.,32.5,8.80693619462263));
#421=CARTESIAN_POINT('',(5.,38.,8.80693619462263));
#422=CARTESIAN_POINT('Origin',(5.,32.5,8.80693619462263));
#423=CARTESIAN_POINT('',(6.5,38.,8.80693619462263));
#424=CARTESIAN_POINT('',(5.,38.,8.80693619462263));
#425=CARTESIAN_POINT('Origin',(6.5,32.5,8.80693619462263));
#426=CARTESIAN_POINT('Origin',(82.25,32.5,0.55));
#427=CARTESIAN_POINT('',(158.,1.5,0.55));
#428=CARTESIAN_POINT('',(6.5,1.5,0.55));
#429=CARTESIAN_POINT('',(158.,1.5,0.55));
#430=CARTESIAN_POINT('',(158.,63.5,0.55));
#431=CARTESIAN_POINT('',(158.,1.5,0.55));
#432=CARTESIAN_POINT('',(6.5,63.5,0.55));
#433=CARTESIAN_POINT('',(6.5,63.5,0.55));
#434=CARTESIAN_POINT('',(6.5,1.5,0.55));
#435=CARTESIAN_POINT('Origin',(158.,63.5,19.05));
#436=CARTESIAN_POINT('',(158.,63.5,19.05));
#437=CARTESIAN_POINT('',(158.,1.5,19.05));
#438=CARTESIAN_POINT('',(158.,48.,19.05));
#439=CARTESIAN_POINT('',(158.,63.5,19.05));
#440=CARTESIAN_POINT('',(158.,1.5,19.05));
#441=CARTESIAN_POINT('Origin',(6.5,63.5,19.05));
#442=CARTESIAN_POINT('',(6.5,63.5,19.05));
#443=CARTESIAN_POINT('',(44.375,63.5,19.05));
#444=CARTESIAN_POINT('',(6.5,63.5,19.05));
#445=CARTESIAN_POINT('Origin',(6.5,1.5,19.05));
#446=CARTESIAN_POINT('',(6.5,1.5,19.05));
#447=CARTESIAN_POINT('',(6.5,17.,19.05));
#448=CARTESIAN_POINT('',(6.5,1.5,19.05));
#449=CARTESIAN_POINT('Origin',(158.,1.5,19.05));
#450=CARTESIAN_POINT('',(120.125,1.5,19.05));
#451=CARTESIAN_POINT('Origin',(82.25,32.5,19.05));
#452=CARTESIAN_POINT('',(5.,2.00000000000001,19.05));
#453=CARTESIAN_POINT('',(7.,0.,19.05));
#454=CARTESIAN_POINT('Origin',(7.,2.,19.05));
#455=CARTESIAN_POINT('',(157.5,1.11022302462516E-14,19.05));
#456=CARTESIAN_POINT('',(7.,0.,19.05));
#457=CARTESIAN_POINT('',(159.5,1.99999999999999,19.05));
#458=CARTESIAN_POINT('Origin',(157.5,1.99999999999999,19.05));
#459=CARTESIAN_POINT('',(159.5,63.,19.05));
#460=CARTESIAN_POINT('',(159.5,1.99999999999999,19.05));
#461=CARTESIAN_POINT('',(157.5,65.,19.05));
#462=CARTESIAN_POINT('Origin',(157.5,63.,19.05));
#463=CARTESIAN_POINT('',(7.00000000000001,65.,19.05));
#464=CARTESIAN_POINT('',(157.5,65.,19.05));
#465=CARTESIAN_POINT('',(5.,63.,19.05));
#466=CARTESIAN_POINT('Origin',(7.00000000000001,63.,19.05));
#467=CARTESIAN_POINT('',(5.,63.,19.05));
#468=CARTESIAN_POINT('Origin',(5.,63.,0.));
#469=CARTESIAN_POINT('',(5.,63.,0.));
#470=CARTESIAN_POINT('',(5.,2.00000000000001,0.));
#471=CARTESIAN_POINT('',(5.,63.,0.));
#472=CARTESIAN_POINT('',(5.,2.00000000000001,0.));
#473=CARTESIAN_POINT('',(5.,63.,0.));
#474=CARTESIAN_POINT('Origin',(7.00000000000001,63.,0.));
#475=CARTESIAN_POINT('',(7.00000000000001,65.,0.));
#476=CARTESIAN_POINT('Origin',(7.00000000000001,63.,0.));
#477=CARTESIAN_POINT('',(7.00000000000001,65.,0.));
#478=CARTESIAN_POINT('Origin',(157.5,65.,0.));
#479=CARTESIAN_POINT('',(157.5,65.,0.));
#480=CARTESIAN_POINT('',(157.5,65.,0.));
#481=CARTESIAN_POINT('',(157.5,65.,0.));
#482=CARTESIAN_POINT('Origin',(157.5,63.,0.));
#483=CARTESIAN_POINT('',(159.5,63.,0.));
#484=CARTESIAN_POINT('Origin',(157.5,63.,0.));
#485=CARTESIAN_POINT('',(159.5,63.,0.));
#486=CARTESIAN_POINT('Origin',(159.5,1.99999999999999,0.));
#487=CARTESIAN_POINT('',(159.5,1.99999999999999,0.));
#488=CARTESIAN_POINT('',(159.5,1.99999999999999,0.));
#489=CARTESIAN_POINT('',(159.5,1.99999999999999,0.));
#490=CARTESIAN_POINT('Origin',(157.5,1.99999999999999,0.));
#491=CARTESIAN_POINT('',(157.5,1.11022302462516E-14,0.));
#492=CARTESIAN_POINT('Origin',(157.5,1.99999999999999,0.));
#493=CARTESIAN_POINT('',(157.5,1.11022302462516E-14,0.));
#494=CARTESIAN_POINT('Origin',(7.,0.,0.));
#495=CARTESIAN_POINT('',(7.,0.,0.));
#496=CARTESIAN_POINT('',(7.,0.,0.));
#497=CARTESIAN_POINT('',(7.,0.,0.));
#498=CARTESIAN_POINT('Origin',(7.,2.,0.));
#499=CARTESIAN_POINT('Origin',(7.,2.,0.));
#500=CARTESIAN_POINT('Origin',(82.25,32.5,0.));
#501=UNCERTAINTY_MEASURE_WITH_UNIT(LENGTH_MEASURE(0.01),#505,
'DISTANCE_ACCURACY_VALUE',
'Maximum model space distance between geometric entities at asserted c
onnectivities');
#502=UNCERTAINTY_MEASURE_WITH_UNIT(LENGTH_MEASURE(0.01),#505,
'DISTANCE_ACCURACY_VALUE',
'Maximum model space distance between geometric entities at asserted c
onnectivities');
#503=(
GEOMETRIC_REPRESENTATION_CONTEXT(3)
GLOBAL_UNCERTAINTY_ASSIGNED_CONTEXT((#501))
GLOBAL_UNIT_ASSIGNED_CONTEXT((#505,#507,#508))
REPRESENTATION_CONTEXT('','3D')
);
#504=(
GEOMETRIC_REPRESENTATION_CONTEXT(3)
GLOBAL_UNCERTAINTY_ASSIGNED_CONTEXT((#502))
GLOBAL_UNIT_ASSIGNED_CONTEXT((#505,#507,#508))
REPRESENTATION_CONTEXT('','3D')
);
#505=(
LENGTH_UNIT()
NAMED_UNIT(*)
SI_UNIT(.MILLI.,.METRE.)
);
#506=(
LENGTH_UNIT()
NAMED_UNIT(*)
SI_UNIT($,.METRE.)
);
#507=(
NAMED_UNIT(*)
PLANE_ANGLE_UNIT()
SI_UNIT($,.RADIAN.)
);
#508=(
NAMED_UNIT(*)
SI_UNIT($,.STERADIAN.)
SOLID_ANGLE_UNIT()
);
#509=SHAPE_DEFINITION_REPRESENTATION(#510,#511);
#510=PRODUCT_DEFINITION_SHAPE('',$,#513);
#511=SHAPE_REPRESENTATION('',(#309),#503);
#512=PRODUCT_DEFINITION_CONTEXT('part definition',#517,'design');
#513=PRODUCT_DEFINITION('2025-04-06-10-02-54-921','EECE1210Box',#514,#512);
#514=PRODUCT_DEFINITION_FORMATION('',$,#519);
#515=PRODUCT_RELATED_PRODUCT_CATEGORY('EECE1210Box','EECE1210Box',(#519));
#516=APPLICATION_PROTOCOL_DEFINITION('international standard',
'automotive_design',2009,#517);
#517=APPLICATION_CONTEXT(
'Core Data for Automotive Mechanical Design Process');
#518=PRODUCT_CONTEXT('part definition',#517,'mechanical');
#519=PRODUCT('2025-04-06-10-02-54-921','EECE1210Box',$,(#518));
#520=PRESENTATION_STYLE_ASSIGNMENT((#521));
#521=SURFACE_STYLE_USAGE(.BOTH.,#522);
#522=SURFACE_SIDE_STYLE('',(#523));
#523=SURFACE_STYLE_FILL_AREA(#524);
#524=FILL_AREA_STYLE('Steel - Satin',(#525));
#525=FILL_AREA_STYLE_COLOUR('Steel - Satin',#526);
#526=COLOUR_RGB('Steel - Satin',0.627450980392157,0.627450980392157,0.627450980392157);
ENDSEC;
END-ISO-10303-21;
